<svg xmlns="http://www.w3.org/2000/svg" width="940" height="650" viewBox="0 0 940 650" font-family="Arial, Helvetica, sans-serif"><rect width="940" height="650" fill="#ffffff"/><defs><marker id="ah" markerWidth="12" markerHeight="12" refX="9" refY="4" orient="auto"><path d="M0,0 L9,4 L0,8 Z" fill="#000"/></marker></defs><text x="470.0" y="26" text-anchor="middle" font-size="15" font-weight="bold">FACT-CERTIFICATION AUTHORITY HIERARCHY</text><rect x="380.0" y="60" width="180" height="50" rx="4" fill="#ffffff" stroke="#000" stroke-width="1.6"/><text x="470.0" y="79.0" text-anchor="middle" font-size="11" font-weight="bold" dominant-baseline="middle">ROOT TRUST ANCHOR</text><text x="470.0" y="95.0" text-anchor="middle" font-size="10.5">self-certifying (300)</text><rect x="80" y="180" width="170" height="48" rx="4" fill="#ffffff" stroke="#000" stroke-width="1.6"/><text x="165.0" y="198.0" text-anchor="middle" font-size="10.5" font-weight="bold" dominant-baseline="middle">GOVERNMENT AUTH.</text><text x="165.0" y="214.0" text-anchor="middle" font-size="10.5">trust ≤ 0.93</text><line x1="470.0" y1="110" x2="165.0" y2="180" stroke="#000" stroke-width="1.5" marker-end="url(#ah)"/><rect x="100" y="270" width="130" height="40" rx="4" fill="#ffffff" stroke="#000" stroke-width="1.6"/><text x="165.0" y="284.0" text-anchor="middle" font-size="9.5" font-weight="bold" dominant-baseline="middle">certified facts</text><text x="165.0" y="300.0" text-anchor="middle" font-size="10.5">score → 0.93 (302)</text><line x1="165.0" y1="228" x2="165.0" y2="270" stroke="#000" stroke-width="1.5" marker-end="url(#ah)"/><rect x="280" y="180" width="170" height="48" rx="4" fill="#ffffff" stroke="#000" stroke-width="1.6"/><text x="365.0" y="198.0" text-anchor="middle" font-size="10.5" font-weight="bold" dominant-baseline="middle">ACADEMIC AUTH.</text><text x="365.0" y="214.0" text-anchor="middle" font-size="10.5">trust ≤ 0.86</text><line x1="470.0" y1="110" x2="365.0" y2="180" stroke="#000" stroke-width="1.5" marker-end="url(#ah)"/><rect x="300" y="270" width="130" height="40" rx="4" fill="#ffffff" stroke="#000" stroke-width="1.6"/><text x="365.0" y="284.0" text-anchor="middle" font-size="9.5" font-weight="bold" dominant-baseline="middle">certified facts</text><text x="365.0" y="300.0" text-anchor="middle" font-size="10.5">score → 0.86 (302)</text><line x1="365.0" y1="228" x2="365.0" y2="270" stroke="#000" stroke-width="1.5" marker-end="url(#ah)"/><rect x="480" y="180" width="170" height="48" rx="4" fill="#ffffff" stroke="#000" stroke-width="1.6"/><text x="565.0" y="198.0" text-anchor="middle" font-size="10.5" font-weight="bold" dominant-baseline="middle">PUBLISHER AUTH.</text><text x="565.0" y="214.0" text-anchor="middle" font-size="10.5">trust ≤ 0.80</text><line x1="470.0" y1="110" x2="565.0" y2="180" stroke="#000" stroke-width="1.5" marker-end="url(#ah)"/><rect x="500" y="270" width="130" height="40" rx="4" fill="#ffffff" stroke="#000" stroke-width="1.6"/><text x="565.0" y="284.0" text-anchor="middle" font-size="9.5" font-weight="bold" dominant-baseline="middle">certified facts</text><text x="565.0" y="300.0" text-anchor="middle" font-size="10.5">score → 0.80 (302)</text><line x1="565.0" y1="228" x2="565.0" y2="270" stroke="#000" stroke-width="1.5" marker-end="url(#ah)"/><rect x="680" y="180" width="170" height="48" rx="4" fill="#ffffff" stroke="#000" stroke-width="1.6"/><text x="765.0" y="198.0" text-anchor="middle" font-size="10.5" font-weight="bold" dominant-baseline="middle">WEB CRAWL AUTH.</text><text x="765.0" y="214.0" text-anchor="middle" font-size="10.5">trust ≤ 0.62</text><line x1="470.0" y1="110" x2="765.0" y2="180" stroke="#000" stroke-width="1.5" marker-end="url(#ah)"/><rect x="700" y="270" width="130" height="40" rx="4" fill="#ffffff" stroke="#000" stroke-width="1.6"/><text x="765.0" y="284.0" text-anchor="middle" font-size="9.5" font-weight="bold" dominant-baseline="middle">certified facts</text><text x="765.0" y="300.0" text-anchor="middle" font-size="10.5">score → 0.62 (302)</text><line x1="765.0" y1="228" x2="765.0" y2="270" stroke="#000" stroke-width="1.5" marker-end="url(#ah)"/><text x="470.0" y="360" text-anchor="middle" font-size="10.5">Trust flows downward; a fact inherits a ceiling from its issuing authority.</text><text x="470.0" y="636" text-anchor="middle" font-size="15" font-weight="bold">FIG. 3</text></svg>