<svg xmlns="http://www.w3.org/2000/svg" width="940" height="430" viewBox="0 0 940 430" font-family="Arial, Helvetica, sans-serif"><rect width="940" height="430" fill="#ffffff"/><defs><marker id="ah" markerWidth="12" markerHeight="12" refX="9" refY="4" orient="auto"><path d="M0,0 L9,4 L0,8 Z" fill="#000"/></marker></defs><text x="470.0" y="26" text-anchor="middle" font-size="15" font-weight="bold">FQL — QUERY ANATOMY AND WORKED EXAMPLE</text><rect x="60" y="90" width="470" height="48" rx="4" fill="#fff" stroke="#000" stroke-width="1.5"/><text x="74" y="110" text-anchor="start" font-size="12" font-weight="bold">MATCH</text><text x="180" y="110" text-anchor="start" font-size="10">subject=France · predicate=has_capital · object=?</text><text x="36" y="114.0" dominant-baseline="middle" text-anchor="middle" font-size="11" font-style="italic" font-weight="bold">2200</text><rect x="60" y="146" width="470" height="48" rx="4" fill="#fff" stroke="#000" stroke-width="1.5"/><text x="74" y="166" text-anchor="start" font-size="12" font-weight="bold">WHERE</text><text x="180" y="166" text-anchor="start" font-size="10">certification.trust_score ≥ 0.70</text><text x="36" y="170.0" dominant-baseline="middle" text-anchor="middle" font-size="11" font-style="italic" font-weight="bold">2202</text><line x1="295.0" y1="138" x2="295.0" y2="146" stroke="#000" stroke-width="1.5" marker-end="url(#ah)"/><rect x="60" y="202" width="470" height="48" rx="4" fill="#fff" stroke="#000" stroke-width="1.5"/><text x="74" y="222" text-anchor="start" font-size="12" font-weight="bold">EXCLUDE</text><text x="180" y="222" text-anchor="start" font-size="10">contradicted / unresolved facts</text><text x="36" y="226.0" dominant-baseline="middle" text-anchor="middle" font-size="11" font-style="italic" font-weight="bold">2204</text><line x1="295.0" y1="194" x2="295.0" y2="202" stroke="#000" stroke-width="1.5" marker-end="url(#ah)"/><rect x="60" y="258" width="470" height="48" rx="4" fill="#fff" stroke="#000" stroke-width="1.5"/><text x="74" y="278" text-anchor="start" font-size="12" font-weight="bold">RANK BY</text><text x="180" y="278" text-anchor="start" font-size="10">trust_score DESC</text><text x="36" y="282.0" dominant-baseline="middle" text-anchor="middle" font-size="11" font-style="italic" font-weight="bold">2206</text><line x1="295.0" y1="250" x2="295.0" y2="258" stroke="#000" stroke-width="1.5" marker-end="url(#ah)"/><rect x="60" y="314" width="470" height="48" rx="4" fill="#fff" stroke="#000" stroke-width="1.5"/><text x="74" y="334" text-anchor="start" font-size="12" font-weight="bold">RETURN</text><text x="180" y="334" text-anchor="start" font-size="10">object + response_provenance_hash</text><text x="36" y="338.0" dominant-baseline="middle" text-anchor="middle" font-size="11" font-style="italic" font-weight="bold">2208</text><line x1="295.0" y1="306" x2="295.0" y2="314" stroke="#000" stroke-width="1.5" marker-end="url(#ah)"/><rect x="600" y="90" width="290" height="250" rx="6" fill="#f7f9fc" stroke="#000" stroke-width="1.6"/><text x="614" y="114" text-anchor="start" font-size="11" font-weight="bold">RESULT (2210)</text><rect x="616" y="130" width="258" height="60" rx="4" fill="#ffffff" stroke="#000" stroke-width="1.6"/><text x="745.0" y="154.0" text-anchor="middle" font-size="13" font-weight="bold" dominant-baseline="middle">Paris</text><text x="745.0" y="170.0" text-anchor="middle" font-size="10.5">trust 0.776 · VERIFIED</text><rect x="616" y="205" width="258" height="46" rx="4" fill="#ffffff" stroke="#000" stroke-width="1.6"/><text x="745.0" y="222.0" text-anchor="middle" font-size="11" font-weight="bold" dominant-baseline="middle">Lyon</text><text x="745.0" y="238.0" text-anchor="middle" font-size="10.5">trust 0.434 · excluded</text><text x="616" y="285" text-anchor="start" font-size="10" font-weight="bold">response_provenance_hash</text><text x="616" y="305" font-family="monospace" font-size="10">6baa2a97d872…</text><line x1="530" y1="202" x2="600" y2="160" stroke="#000" stroke-width="1.5" stroke-dasharray="5 4" marker-end="url(#ah)"/><text x="470.0" y="590" text-anchor="middle" font-size="10.5">Structure and trust are one query; the engine returns the highest-trust answer with a hash binding the result to its evidence.</text><text x="470.0" y="416" text-anchor="middle" font-size="15" font-weight="bold">FIG. 22</text></svg>