<?xml version="1.0" encoding="UTF-8"?>
<svg viewBox="0 0 720 700" width="100%" style="max-width:100%;height:auto;background:#fff;border:1px solid #000" xmlns="http://www.w3.org/2000/svg"><defs><marker id="ah" markerWidth="10" markerHeight="10" refX="8" refY="3" orient="auto" markerUnits="strokeWidth"><path d="M0,0 L8,3 L0,6 z" fill="#000"/></marker></defs><rect x="0" y="0" width="720" height="700" fill="#fff"/><rect x="110" y="16" width="500" height="42" rx="4" fill="#fff" stroke="#000" stroke-width="1.6"/><text x="360.0" y="33.5" text-anchor="middle" font-family="Helvetica,Arial,sans-serif" font-size="12.5" fill="#000" font-weight="700">LIL — VOICEPRINT ENROLLMENT &amp; MATCHING OVER THE</text><text x="360.0" y="48.5" text-anchor="middle" font-family="Helvetica,Arial,sans-serif" font-size="12.5" fill="#000" >FACT-UNIT IDENTITY GRAPH (identity assertion: no fabrication)</text><line x1="610" y1="16" x2="620" y2="4" stroke="#000" stroke-width="1"/><text x="622" y="7" text-anchor="start" font-family="Helvetica,Arial,sans-serif" font-size="12" font-weight="700" fill="#000">1000</text><rect x="40" y="74" width="230" height="40" rx="4" fill="#fff" stroke="#000" stroke-width="1.6" stroke-dasharray="6 4"/><text x="155.0" y="98.0" text-anchor="middle" font-family="Helvetica,Arial,sans-serif" font-size="12.5" fill="#000" font-weight="700">Consent gate (precondition)</text><line x1="270" y1="74" x2="280" y2="62" stroke="#000" stroke-width="1"/><text x="282" y="65" text-anchor="start" font-family="Helvetica,Arial,sans-serif" font-size="12" font-weight="700" fill="#000">1001</text><line x1="155" y1="114" x2="155" y2="136" stroke="#000" stroke-width="1.6" marker-end="url(#ah)"/><rect x="40" y="136" width="230" height="48" rx="4" fill="#fff" stroke="#000" stroke-width="1.6"/><text x="155.0" y="156.5" text-anchor="middle" font-family="Helvetica,Arial,sans-serif" font-size="12.5" fill="#000" font-weight="700">Capture: audio / video</text><text x="155.0" y="171.5" text-anchor="middle" font-family="Helvetica,Arial,sans-serif" font-size="12.5" fill="#000" >VAD · 16 kHz · segment</text><line x1="270" y1="136" x2="280" y2="124" stroke="#000" stroke-width="1"/><text x="282" y="127" text-anchor="start" font-family="Helvetica,Arial,sans-serif" font-size="12" font-weight="700" fill="#000">1002</text><line x1="270" y1="160" x2="300" y2="160" stroke="#000" stroke-width="1.6" marker-end="url(#ah)"/><rect x="300" y="136" width="180" height="48" rx="4" fill="#fff" stroke="#000" stroke-width="1.6"/><text x="390.0" y="156.5" text-anchor="middle" font-family="Helvetica,Arial,sans-serif" font-size="12.5" fill="#000" font-weight="700">Acoustic features</text><text x="390.0" y="171.5" text-anchor="middle" font-family="Helvetica,Arial,sans-serif" font-size="12.5" fill="#000" >(MFCC · formants · prosody)</text><line x1="480" y1="136" x2="490" y2="124" stroke="#000" stroke-width="1"/><text x="492" y="127" text-anchor="start" font-family="Helvetica,Arial,sans-serif" font-size="12" font-weight="700" fill="#000">1003</text><line x1="390" y1="184" x2="390" y2="206" stroke="#000" stroke-width="1.6" marker-end="url(#ah)"/><rect x="300" y="206" width="180" height="46" rx="4" fill="#fff" stroke="#000" stroke-width="1.6"/><text x="390.0" y="225.5" text-anchor="middle" font-family="Helvetica,Arial,sans-serif" font-size="12.5" fill="#000" font-weight="700">Speaker embedding</text><text x="390.0" y="240.5" text-anchor="middle" font-family="Helvetica,Arial,sans-serif" font-size="12.5" fill="#000" >(voiceprint vector)</text><line x1="480" y1="206" x2="490" y2="194" stroke="#000" stroke-width="1"/><text x="492" y="197" text-anchor="start" font-family="Helvetica,Arial,sans-serif" font-size="12" font-weight="700" fill="#000">1004</text><line x1="300" y1="229" x2="270" y2="229" stroke="#000" stroke-width="1.6" marker-end="url(#ah)"/><rect x="40" y="206" width="230" height="46" rx="4" fill="#fff" stroke="#000" stroke-width="1.6"/><text x="155.0" y="225.5" text-anchor="middle" font-family="Helvetica,Arial,sans-serif" font-size="12.5" fill="#000" font-weight="700">Enrollment: aggregate N</text><text x="155.0" y="240.5" text-anchor="middle" font-family="Helvetica,Arial,sans-serif" font-size="12.5" fill="#000" >→ canonical voiceprint</text><line x1="270" y1="206" x2="280" y2="194" stroke="#000" stroke-width="1"/><text x="282" y="197" text-anchor="start" font-family="Helvetica,Arial,sans-serif" font-size="12" font-weight="700" fill="#000">1005</text><line x1="390" y1="252" x2="390" y2="276" stroke="#000" stroke-width="1.6" marker-end="url(#ah)"/><rect x="255" y="276" width="270" height="50" rx="4" fill="#fff" stroke="#000" stroke-width="1.6"/><text x="390.0" y="297.5" text-anchor="middle" font-family="Helvetica,Arial,sans-serif" font-size="12.5" fill="#000" font-weight="700">Match / score (cosine · PLDA)</text><text x="390.0" y="312.5" text-anchor="middle" font-family="Helvetica,Arial,sans-serif" font-size="12.5" fill="#000" >vs stored voiceprints</text><line x1="525" y1="276" x2="535" y2="264" stroke="#000" stroke-width="1"/><text x="537" y="267" text-anchor="start" font-family="Helvetica,Arial,sans-serif" font-size="12" font-weight="700" fill="#000">1006</text><line x1="390" y1="326" x2="390" y2="350" stroke="#000" stroke-width="1.6" marker-end="url(#ah)"/><rect x="230" y="350" width="320" height="52" rx="4" fill="#fff" stroke="#000" stroke-width="1.6"/><text x="390.0" y="372.5" text-anchor="middle" font-family="Helvetica,Arial,sans-serif" font-size="12.5" fill="#000" font-weight="700">QueryBook TRUST GATE →</text><text x="390.0" y="387.5" text-anchor="middle" font-family="Helvetica,Arial,sans-serif" font-size="12.5" fill="#000" >VERIFIED · CONTRADICTED · UNKNOWN (refuse)</text><line x1="550" y1="350" x2="560" y2="338" stroke="#000" stroke-width="1"/><text x="562" y="341" text-anchor="start" font-family="Helvetica,Arial,sans-serif" font-size="12" font-weight="700" fill="#000">1007</text><line x1="390" y1="402" x2="390" y2="428" stroke="#000" stroke-width="1.6" marker-end="url(#ah)"/><rect x="150" y="428" width="470" height="92" rx="4" fill="#fff" stroke="#000" stroke-width="1.6"/><text x="385.0" y="478.0" text-anchor="middle" font-family="Helvetica,Arial,sans-serif" font-size="12.5" fill="#000" font-weight="700">Fact-Unit identity graph (provenance + trust)</text><line x1="620" y1="428" x2="630" y2="416" stroke="#000" stroke-width="1"/><text x="632" y="419" text-anchor="start" font-family="Helvetica,Arial,sans-serif" font-size="12" font-weight="700" fill="#000">1008</text><rect x="168" y="470" width="120" height="42" rx="4" fill="#fff" stroke="#000" stroke-width="1.6"/><text x="228.0" y="487.5" text-anchor="middle" font-family="Helvetica,Arial,sans-serif" font-size="12.5" fill="#000" font-weight="700">person ↔</text><text x="228.0" y="502.5" text-anchor="middle" font-family="Helvetica,Arial,sans-serif" font-size="12.5" fill="#000" >voiceprint</text><rect x="298" y="470" width="120" height="42" rx="4" fill="#fff" stroke="#000" stroke-width="1.6"/><text x="358.0" y="487.5" text-anchor="middle" font-family="Helvetica,Arial,sans-serif" font-size="12.5" fill="#000" font-weight="700">person ↔ face</text><text x="358.0" y="502.5" text-anchor="middle" font-family="Helvetica,Arial,sans-serif" font-size="12.5" fill="#000" >↔ email/site</text><rect x="428" y="470" width="120" height="42" rx="4" fill="#fff" stroke="#000" stroke-width="1.6"/><text x="488.0" y="487.5" text-anchor="middle" font-family="Helvetica,Arial,sans-serif" font-size="12.5" fill="#000" font-weight="700">person ↔</text><text x="488.0" y="502.5" text-anchor="middle" font-family="Helvetica,Arial,sans-serif" font-size="12.5" fill="#000" >organization</text><rect x="40" y="560" width="300" height="54" rx="4" fill="#fff" stroke="#000" stroke-width="1.6"/><text x="190.0" y="576.0" text-anchor="middle" font-family="Helvetica,Arial,sans-serif" font-size="12.5" fill="#000" font-weight="700">LEL cross-script name /</text><text x="190.0" y="591.0" text-anchor="middle" font-family="Helvetica,Arial,sans-serif" font-size="12.5" fill="#000" >entity resolution</text><text x="190.0" y="606.0" text-anchor="middle" font-family="Helvetica,Arial,sans-serif" font-size="12.5" fill="#000" >(the &#x27;Language&#x27; in LIL)</text><line x1="340" y1="560" x2="350" y2="548" stroke="#000" stroke-width="1"/><text x="352" y="551" text-anchor="start" font-family="Helvetica,Arial,sans-serif" font-size="12" font-weight="700" fill="#000">1009</text><line x1="190" y1="560" x2="300" y2="520" stroke="#000" stroke-width="1.6" marker-end="url(#ah)"/><rect x="390" y="560" width="290" height="54" rx="4" fill="#fff" stroke="#000" stroke-width="1.6"/><text x="535.0" y="583.5" text-anchor="middle" font-family="Helvetica,Arial,sans-serif" font-size="12.5" fill="#000" font-weight="700">Provenance-tracked link Fact Unit</text><text x="535.0" y="598.5" text-anchor="middle" font-family="Helvetica,Arial,sans-serif" font-size="12.5" fill="#000" >(subject predicate object · trust · source)</text><line x1="680" y1="560" x2="690" y2="548" stroke="#000" stroke-width="1"/><text x="692" y="551" text-anchor="start" font-family="Helvetica,Arial,sans-serif" font-size="12" font-weight="700" fill="#000">1010</text><line x1="500" y1="560" x2="470" y2="520" stroke="#000" stroke-width="1.6" marker-end="url(#ah)"/></svg>